<?xml version="1.0" encoding="utf-8"?>
<!-- Generator: Adobe Illustrator 19.2.1, SVG Export Plug-In . SVG Version: 6.00 Build 0)  -->
<svg version="1.1" xmlns="http://www.w3.org/2000/svg" xmlns:xlink="http://www.w3.org/1999/xlink" x="0px" y="0px" width="24px"
	 height="24px" viewBox="0 0 24 24" enable-background="new 0 0 24 24" xml:space="preserve">
<g id="Filled_Icons_1_">
	<g id="Filled_Icons">
		<path d="M23,11H13V1.001C13,0.448,12.574,0,12.021,0l0,0c-0.553,0-1,0.447-1,0.999L11.012,11H1c-0.553,0-1,0.447-1,1
			c0,0.552,0.447,1,1,1h10.01L11,22.999c-0.001,0.552,0.446,1,0.998,1.001h0.001c0.552,0,1-0.447,1.001-0.999V13h10
			c0.552,0,1-0.448,1-1C24,11.447,23.552,11,23,11z"/>
	</g>
	<g id="New_icons">
	</g>
</g>
<g id="Invisible_Shape">
	<rect fill="none" width="24" height="24"/>
</g>
</svg>
