<?xml version="1.0" encoding="UTF-8"?>
<svg width="30px" height="30px" viewBox="0 0 30 30" version="1.1" xmlns="http://www.w3.org/2000/svg" xmlns:xlink="http://www.w3.org/1999/xlink">
    <!-- Generator: Sketch 42 (36781) - http://www.bohemiancoding.com/sketch -->
    <title>Icon</title>
    <desc>Created with Sketch.</desc>
    <defs></defs>
    <g id="Page-1" stroke="none" stroke-width="1" fill="none" fill-rule="evenodd">
        <path d="M12.1143352,15.8718773 C12.1486114,15.7845403 12.1838381,15.6980038 12.2207783,15.61181 C12.2280562,15.594343 12.2405444,15.5777955 12.2566941,15.5623611 C12.315281,15.5009484 12.4329472,15.4560048 12.5180324,15.4389878 C13.333753,15.2869043 14.1563866,15.1486466 14.9790201,15.0103888 C15.2140582,14.9689115 15.4490964,14.9274342 15.6910474,14.8997826 C15.774002,14.8928698 15.8846082,14.9205213 15.9329984,14.9758244 C16.202601,15.3007301 16.4583778,15.6325486 16.7556319,16.0058445 C16.7520018,16.0064445 16.7483719,16.0070445 16.7447421,16.0076446 C16.7460672,16.009348 16.7473928,16.0110523 16.7487191,16.0127574 C16.1737157,16.1058077 15.6020062,16.1988581 15.0304643,16.2924768 C13.9447384,16.4734482 12.8615402,16.6544195 11.7576149,16.8353909 C11.8803997,16.4937289 11.9908166,16.1768026 12.1143352,15.8718773 Z M12.2936477,10.9224791 C12.5220057,11.0149812 12.759927,11.0945169 12.9604572,11.2221269 C13.1725367,11.3604397 13.2708472,11.5387254 13.2697436,11.7467305 C13.2703073,11.8525795 13.2449213,11.9662033 13.1954953,12.0862378 C13.0848891,12.3489275 12.9673701,12.6047043 12.8636768,12.8743069 C12.8083737,13.0194775 12.7323319,13.0747806 12.5664226,13.0125646 C12.1101721,12.8328295 11.6470087,12.6669203 11.1838453,12.501011 C11.0998137,12.4730004 11.0547965,12.4361229 11.0389137,12.3876839 C11.0188277,12.3392869 11.0305257,12.2789381 11.0663262,12.2037568 C11.0847592,12.1647224 11.1026819,12.1255179 11.1202011,12.08617 C11.1974985,11.9032709 11.2699485,11.7155243 11.3480376,11.5334169 C11.360066,11.5033985 11.3721449,11.4733689 11.384319,11.4433393 C11.4408737,11.3122352 11.5127236,11.2069415 11.6012905,11.1242591 C11.7492518,10.9839895 11.9448857,10.9093434 12.2000396,10.8833955 C12.2309741,10.8967726 12.2622119,10.9097452 12.2936308,10.9224845 Z M8.19152523,19.5469164 C8.23038471,19.5462453 8.27986413,19.5595131 8.34264888,19.5867198 C8.77816074,19.7733677 9.22058549,19.939277 9.66301023,20.1190121 C9.7321391,20.1466636 9.79435508,20.1881409 9.89804838,20.243444 C9.19984683,21.1213806 8.50855816,21.9785786 7.82418238,22.8357765 C7.82228271,22.8353016 7.82038303,22.8347941 7.81848336,22.8342561 C7.81807874,22.8347629 7.81767412,22.8352697 7.8172695,22.8357765 C7.79653084,22.8288636 7.76887929,22.8150379 7.74122774,22.8012121 C7.78270506,22.3726131 7.8172695,21.950927 7.8656597,21.5223281 C7.92787568,20.9416456 8.00391744,20.3609631 8.05230764,19.7733677 C8.06707011,19.6208222 8.09934662,19.5453384 8.19152523,19.5469164 Z M21.7158423,19.5013815 C21.7612094,18.7005773 21.3201583,17.6691434 20.6752387,17.2294254 C20.4885907,17.0980806 20.3295943,17.0635162 20.1498593,17.2432512 C20.0807304,17.3123801 19.98395,17.3538574 19.8733438,17.4298992 C19.8661426,17.3878922 19.8629006,17.3494277 19.8632921,17.3139628 C19.8636426,17.3457152 19.866916,17.3796491 19.8733438,17.4160734 C19.98395,17.3469445 20.0807304,17.2985543 20.1498593,17.2294254 C20.3226815,17.0496904 20.4816778,17.0911677 20.6752387,17.2155997 C21.3202053,17.6670763 21.7612737,18.7004091 21.7158324,19.5015084 Z M19.8632921,17.3139628 C19.8613806,17.1408238 19.946374,17.0325496 20.0807304,16.9390842 C20.2328139,16.8353909 20.3641588,16.7455234 20.5715454,16.8492167 C21.32505,17.2363383 21.6845201,17.9068883 21.8849938,18.6811316 C21.952655,18.941367 21.9909266,19.1996431 21.9902199,19.4533783 Z M21.7158423,19.5013815 C21.7077176,19.6447967 21.6839921,19.7808148 21.6430428,19.9047126 C21.6306043,19.8970971 21.618168,19.889484 21.6057337,19.8818731 C20.9409357,19.4749507 20.281576,19.0739559 19.5622639,18.6396543 C19.5633544,18.6448343 19.5643804,18.6500465 19.5653496,18.655285 Z M6.3632569,17.4984644 C6.32470777,17.2048077 6.28163411,16.9101018 6.23699254,16.6069554 C6.2130493,16.4500433 6.18873523,16.2914967 6.16508959,16.1302765 C6.16574175,16.1301711 6.1663939,16.1300658 6.16704605,16.1299605 C6.1663939,16.1254598 6.16574174,16.1209565 6.16508959,16.1164507 C7.26603003,15.9523353 8.33314947,15.7814558 9.45343171,15.597121 C9.46567745,15.595106 9.47792952,15.5930895 9.49018807,15.5910713 C9.44871075,15.7224162 9.43488497,15.791545 9.40032054,15.8744997 C9.18602105,16.3722275 8.96480868,16.8699553 8.75742208,17.3676832 C8.68829321,17.5266796 8.57768703,17.5958084 8.40486486,17.6165471 C7.83109527,17.685676 7.25732568,17.7617177 6.69046897,17.8515852 C6.49690814,17.8792368 6.40704062,17.8515852 6.37938907,17.6372858 C6.37424192,17.5909614 6.36885524,17.5446969 6.3632569,17.4984644 Z M17.2386645,16.2099071 C17.2458663,16.208711 17.253069,16.2075147 17.2602727,16.2063182 C17.2599877,16.2059592 17.2597028,16.2056002 17.2594179,16.2052413 C17.2585631,16.2041644 17.2577084,16.203088 17.2568538,16.2020121 C17.0175469,15.9006723 16.791552,15.6356572 16.5880612,15.372499 C16.5006424,15.2579006 16.4179264,15.1429404 16.3408587,15.0242146 C16.2784837,14.9333253 16.2151898,14.8534625 16.1481344,14.7879425 C15.955117,14.5938115 15.7261703,14.5235131 15.4007062,14.6578316 C15.3709304,14.6697419 15.3400147,14.6782321 15.3084499,14.6846117 C15.2366787,14.696902 15.1617556,14.6986122 15.089403,14.710724 C15.0825415,14.7114837 15.0757014,14.712283 15.0688876,14.7131347 C14.1425608,14.8721311 13.2231469,15.0311275 12.29682,15.1901239 C12.2872854,15.19194 12.2778402,15.193786 12.2684962,15.1956989 C12.2235747,15.2035974 12.1810859,15.2144995 12.1423572,15.2319445 C12.0659409,15.2641163 12.003537,15.3181188 11.9650015,15.425162 C11.7852664,15.9367156 11.5917056,16.4413564 11.4050577,16.95291 C11.384319,17.0082131 11.384319,17.0773419 11.3704932,17.1741224 C11.3728518,17.1737417 11.3752104,17.173361 11.3775689,17.1729803 C11.3775148,17.1733604 11.3774606,17.1737411 11.3774061,17.1741224 C11.4778761,17.1574953 11.5782375,17.1409044 11.678506,17.1243451 C11.578308,17.1405581 11.4780011,17.1567692 11.3775689,17.1729803 Z M8.18731922,19.2738894 C8.18864496,19.2409302 8.19879079,19.2028009 8.21821692,19.1581208 C9.08924064,17.015126 9.96026436,14.879044 10.8312881,12.7360491 C10.8865912,12.6047043 10.95572,12.5494012 11.1078035,12.6047043 C11.5847927,12.7844393 12.0617819,12.9503486 12.5387711,13.1300837 C12.6009871,13.1577352 12.6562902,13.2061254 12.7046804,13.2406898 C12.6701159,13.3443831 12.6493773,13.4065991 12.6217257,13.475728 C11.7852664,15.5910713 10.9418943,17.7064146 10.1123479,19.8286708 C10.0155675,20.0706219 9.92569993,20.125925 9.68374889,20.0153188 C9.24823703,19.8148451 8.79198651,19.6420229 8.34264888,19.4622878 C8.22784416,19.4153223 8.17606761,19.3644174 8.18731922,19.2738894 Z M18.6120789,22.9005154 C18.6062537,22.8972049 18.6003821,22.8940408 18.5944598,22.8910796 C18.64285,22.8357765 18.6912402,22.745909 18.7465433,22.7389961 C19.375616,22.6283899 20.0046887,22.5246966 20.6337614,22.4279162 C21.9610356,22.2205296 23.2883098,22.013143 24.6155841,21.8057564 C24.7953191,21.7781049 24.8229707,21.6744116 24.7953191,21.5292409 C24.6363227,20.5752626 24.4704135,19.6143713 24.3114171,18.6534801 C24.0556403,17.1533837 23.8067763,15.6463744 23.5579124,14.146278 C23.3090485,12.6461816 23.0601846,11.1391723 22.8113207,9.6390759 C22.7214531,9.07913208 22.6108469,8.51918826 22.5348052,7.95924444 C22.5140665,7.78642227 22.5762825,7.60668722 22.5970212,7.43386505 C22.6384984,7.44077793 22.6799757,7.44077794 22.7214529,7.44077794 C23.5302609,12.2797986 24.3390686,17.1188193 25.1547892,21.9993172 C24.6778,22.075359 24.2422882,22.1514007 23.7998634,22.2205296 C22.3274186,22.4555678 20.8618866,22.6906059 19.3894418,22.925644 C19.1958809,22.9532956 18.9954072,22.98786 18.8018464,23.0016858 C18.7396304,23.0085987 18.6705015,22.9394698 18.6082856,22.9049054 C18.60955,22.9034604 18.6108144,22.9019965 18.6120789,22.9005154 Z M19.7465978,6.78919748 C19.7286413,6.79032926 19.7076686,6.79954919 19.6866959,6.80479237 C18.9193655,6.93613721 18.1451222,7.06748206 17.3708789,7.19191402 C15.7394376,7.4615166 14.1079964,7.72420629 12.4765551,7.99380887 C10.95572,8.24267279 9.43488497,8.4984496 7.91404991,8.74731352 C6.35173752,9.00309032 4.78942514,9.26578002 3.22711276,9.51464394 C3.06397296,9.53974237 2.97487157,9.58192658 3.00633326,9.69806008 C2.97481884,9.58192363 3.06334018,9.53974149 3.22019987,9.51464394 C4.78251225,9.26578002 6.34482464,9.00309032 7.90713702,8.74731352 C9.42797209,8.4984496 10.9488072,8.24267279 12.4696422,7.99380887 C14.1010835,7.72420629 15.7325247,7.4615166 17.363966,7.19191402 C18.1312964,7.06748206 18.9055397,6.93613721 19.679783,6.80479237 C19.7035105,6.79886049 19.727238,6.78783854 19.7465978,6.78919748 C19.7523161,6.78883706 19.7577285,6.78929688 19.7627376,6.79096659 C19.8456923,6.81861814 19.9286469,6.85318257 20.0116016,6.88774701 C19.9493856,6.94996299 19.8940825,7.06056917 19.8180407,7.07439495 C19.2027938,7.19191402 18.580634,7.28869443 17.9584742,7.39238773 C17.8803568,7.40500045 17.8022633,7.41761316 17.7241909,7.43022728 C16.5515042,7.62510659 15.3836028,7.81489204 14.2109348,8.00435953 C14.1351655,8.01695102 14.0593762,8.02956377 13.9835644,8.04219908 C12.5595097,8.27723723 11.1285422,8.51227537 9.70448755,8.74731352 C8.0730463,9.0169161 6.44160505,9.27960579 4.8101638,9.54229548 C4.40921637,9.60451146 4.01518184,9.68055322 3.61423441,9.72894342 C3.38610915,9.75659497 3.3100674,9.86028827 3.34463183,10.0884135 C3.66262462,12.1622795 3.96679163,14.2430584 4.27787153,16.3238373 C4.56129988,18.231794 4.85855401,20.1397507 5.14198236,22.0407946 C5.27332721,22.8979925 5.39775917,23.7621033 5.51527824,24.6193013 C5.53747257,24.7802102 5.58193457,24.8431413 5.7094324,24.8438408 C5.73932691,24.843677 5.77347812,24.8401098 5.81253237,24.8336008 C7.78961795,24.515608 9.77361642,24.211441 11.7576149,23.9003611 C12.7392448,23.7482776 13.7139618,23.5961941 14.6955917,23.4579363 C14.6996913,23.4575264 14.7038639,23.4574081 14.7081021,23.4575572 C14.7764367,23.4550713 14.8635373,23.5281759 14.9375428,23.5685425 C14.8753268,23.6238456 14.8200237,23.7068002 14.7508948,23.720626 C12.9604572,24.0040544 11.1631066,24.2805698 9.36575611,24.5570853 C8.10761074,24.7506461 6.84946536,24.9511198 5.59131999,25.1585064 C5.5579462,25.1638893 5.52826092,25.166422 5.50182028,25.1661827 C5.35310031,25.1675013 5.30395669,25.0845391 5.28024009,24.9303812 C5.15580813,24.0731832 5.02446329,23.2228982 4.90003133,22.3726131 C4.69264473,21.0246002 4.49217101,19.6835002 4.2916973,18.3354873 C4.09813648,17.0013002 3.90457565,15.6602002 3.70410194,14.326013 C3.51054111,12.9987388 3.30315451,11.6714646 3.1026808,10.3441903 C3.08591028,10.2309894 3.06913977,10.1152456 3.05236926,9.99079025 C3.04121775,9.91122691 3.03047195,9.82719559 3.01972616,9.73585631 C3.01397966,9.72244783 3.0095306,9.70986499 3.0063245,9.69804786 Z M14.8433547,24.4749948 C14.8632292,24.3946325 14.8891525,24.3151343 14.9168041,24.2390925 C16.2233397,20.5130466 17.5367881,16.7939136 18.8433237,13.0678677 C19.0023201,12.6254429 18.8986268,12.6047043 19.4309191,12.7637007 C19.7212603,12.8535682 20.0116016,12.9365228 20.3019428,13.0056517 C20.3896992,13.0254677 20.450793,13.0522391 20.4885472,13.0921373 C20.5493539,13.149731 20.557145,13.2360754 20.5231552,13.3720347 C20.2466397,14.512661 19.9908629,15.6532873 19.7212603,16.7939136 C19.0645361,19.5383296 18.4078119,22.2896585 17.7441747,25.0340745 C17.6819588,25.2898513 17.5782655,25.5456281 17.4469206,25.7737534 C17.2187953,26.1539621 16.8662381,26.3544358 16.4307263,26.3198714 C15.4283577,26.3129585 14.7716335,25.6631472 14.8061979,24.7160817 C14.8096543,24.6365835 14.8234801,24.5553571 14.8433547,24.4749948 Z M19.9666837,12.5204872 C19.7556029,12.4600138 19.5475502,12.4010142 19.3410516,12.3420146 C19.3111092,12.3329017 19.2877863,12.3220727 19.2698824,12.3097121 C19.1844536,12.259036 19.2084958,12.1705442 19.2373583,12.072412 C19.4931351,11.1737367 19.741999,10.2612357 20.0046887,9.36256043 C20.2535526,8.51227537 20.4194619,7.65507743 20.3434201,6.76331505 C20.288117,6.12732948 20.1913366,5.49825679 19.7765634,4.96596452 C19.7264466,4.90177986 19.6740932,4.84251571 19.6196597,4.78780226 C19.2472225,4.41727203 18.7783389,4.25768254 18.2626412,4.19172121 C17.3847046,4.07420214 16.5136809,4.08802791 15.594267,4.16406967 C15.5975118,4.16132407 15.6007385,4.15856045 15.6039489,4.15578044 C15.5984186,4.15623692 15.592887,4.15669571 15.5873541,4.15715678 C15.6772216,4.07420214 15.7532634,3.9912475 15.8500438,3.92211863 C16.5205938,3.44512945 17.2948371,3.23082997 18.0898191,3.10639801 C19.741999,2.84370831 21.3527016,3.08565935 22.9219268,3.63177739 C23.1116328,3.69901496 23.2904948,3.78043322 23.4599615,3.87487312 C23.5954813,3.95003399 23.7249984,4.03402408 23.8492504,4.12581077 C24.0168934,4.24941287 24.1749532,4.38707591 24.3252428,4.53736554 C24.7054516,4.91757431 25.1340506,4.99361606 25.6041269,4.80005524 C25.8944681,4.67562328 26.143332,4.7171006 26.4198475,4.81388101 C26.6979168,4.91236389 26.8594728,4.96836797 26.9385878,5.05054637 C27.0571639,5.16480124 27.0087736,5.32756607 26.8899238,5.73329494 C26.7101887,6.33471608 26.5304537,6.93613721 26.3576315,7.54447124 C26.3023284,7.73111918 26.2262867,7.80716093 26.0258129,7.73803207 C25.8806423,7.68272897 25.7285588,7.64125165 25.5764753,7.62051299 C25.2655443,7.57420412 25.0369164,7.42659911 24.8481807,7.17163926 C24.8373885,7.15796894 24.8266843,7.14398888 24.8160578,7.12969804 C24.8059225,7.11541655 24.7955954,7.10165698 24.7850838,7.08840222 C24.4745058,6.71769805 24.023931,6.75141519 23.5924768,6.79787948 C22.915014,6.87392123 22.4795021,7.24030423 22.2237253,7.89011557 C21.6499557,9.33490888 21.2282696,10.8280924 20.8134964,12.3212759 C20.7909345,12.3889616 20.7683726,12.4566472 20.7446981,12.5298961 C20.7253199,12.5932541 20.7044711,12.6589892 20.6821516,12.7291362 C20.4361793,12.6567914 20.1996708,12.5882322 19.9666837,12.5204872 Z M17.4745722,16.1510151 C17.2533598,15.8883254 17.0390603,15.6394615 16.8247608,15.3767718 C15.3315773,13.5725084 13.8383938,11.7751579 12.3452103,9.97089446 C11.9511757,9.50081816 11.9719144,8.98235166 12.3936005,8.61596867 C12.8221994,8.24267279 13.4097948,8.27032434 13.7969165,8.71966197 C14.7647206,9.85337538 15.7186989,11.0009146 16.6795902,12.1484538 C17.1565794,12.7153105 17.6335685,13.2890801 18.1105577,13.8559368 C18.2211639,13.9872816 18.2419026,14.1048007 18.0898191,14.2637971 C17.7925649,13.9112399 17.5022237,13.5725084 17.2187953,13.233777 C16.0297788,11.8097223 14.8338495,10.3856677 13.6448329,8.961613 C13.3821433,8.65053311 13.1125407,8.56757847 12.8014608,8.68509754 C12.5111195,8.80261661 12.3106458,9.07221919 12.359036,9.36947332 C12.3866876,9.52155682 12.4696422,9.68055322 12.5664226,9.79807229 C13.7761778,11.2636043 14.9928458,12.7291362 16.202601,14.1877553 C16.6381129,14.7062218 17.059799,15.2246883 17.4953108,15.7431548 C17.605917,15.8744997 17.6335685,15.9920187 17.4745722,16.1510151 Z M20.3088557,15.6532873 C20.2604655,15.3905976 20.3987232,15.3560332 20.5508067,15.3352945 C20.9655799,15.2799914 21.387266,15.2246883 21.8366036,15.1624723 C21.7674748,14.7960893 21.7121717,14.4366192 21.6361299,14.0909749 C21.629217,14.0494976 21.511698,13.9941945 21.449482,14.0011074 C21.1798794,14.021846 20.9102768,14.0633234 20.6475871,14.0978878 C20.5646325,13.8905012 20.6683258,13.8213723 20.8134964,13.8006337 C21.1038376,13.7522435 21.3941789,13.7107661 21.6845201,13.6900275 C21.753649,13.6900275 21.8711681,13.7868079 21.8849938,13.8559368 C21.9817743,14.3052744 22.0647289,14.7684378 22.1338578,15.2246883 C22.1407706,15.2799914 22.0785547,15.4044234 22.0301645,15.4113363 C21.4633078,15.5012038 20.8895382,15.5772455 20.3088557,15.6532873 Z" id="Combined-Shape" fill="#FFFFFF" fill-rule="nonzero"></path>
    </g>
</svg>