<?xml version="1.0" encoding="utf-8"?>
<!-- Generator: Adobe Illustrator 19.2.1, SVG Export Plug-In . SVG Version: 6.00 Build 0)  -->
<svg version="1.1" xmlns="http://www.w3.org/2000/svg" xmlns:xlink="http://www.w3.org/1999/xlink" x="0px" y="0px" width="24px"
	 height="24px" viewBox="0 0 24 24" enable-background="new 0 0 24 24" xml:space="preserve">
<g id="Filled_Icons">
	<path d="M23.825,6.333L21.243,4.12c-0.101-0.086-0.231-0.122-0.365-0.118c-0.132,0.01-0.255,0.073-0.341,0.175l-8.54,10.051
		L3.463,4.177C3.376,4.075,3.253,4.012,3.121,4.002C2.993,3.999,2.857,4.034,2.756,4.12L0.174,6.333
		C0.073,6.42,0.011,6.543,0.001,6.676c-0.01,0.133,0.033,0.264,0.121,0.364L11.62,20.327c0.095,0.109,0.233,0.173,0.378,0.173
		c0.145,0,0.283-0.063,0.378-0.173L23.878,7.04c0.087-0.101,0.13-0.231,0.121-0.364C23.989,6.543,23.926,6.42,23.825,6.333z"/>
</g>
<g id="Frames-24px">
	<rect fill="none" width="24" height="24"/>
</g>
</svg>
