<?xml version="1.0" encoding="UTF-8"?>
<svg width="246px" height="237px" viewBox="0 0 246 237" version="1.1" xmlns="http://www.w3.org/2000/svg" xmlns:xlink="http://www.w3.org/1999/xlink">
    <!-- Generator: Sketch 42 (36781) - http://www.bohemiancoding.com/sketch -->
    <title>Combined Shape</title>
    <desc>Created with Sketch.</desc>
    <defs></defs>
    <g id="Page-1" stroke="none" stroke-width="1" fill="none" fill-rule="evenodd">
        <path d="M101.521806,6.82050002 C113.141393,-1.62162417 131.971813,-1.62791119 143.600054,6.82050002 L230.570561,70.0082724 C242.190148,78.4503965 248.015047,96.357247 243.573454,110.027064 L210.353677,212.267027 C205.915389,225.926671 190.684955,237 176.31166,237 L68.8102003,237 C54.4476008,237 39.2097759,225.936843 34.7681833,212.267027 L1.54840544,110.027064 C-2.88988191,96.3674197 2.92305846,78.4566836 14.5512989,70.0082724 L101.521806,6.82050002 Z M73.0894668,57.462748 C74.0481872,57.634901 96.3531992,62.1441117 101.140167,87.3282933 C95.0720302,93.7514593 91.3081403,102.75559 91.3081403,112.756413 C91.3081403,112.849469 91.3154385,112.935546 91.3154385,113.021622 L154.902155,113.021622 C154.902155,112.935546 154.91642,112.849469 154.91642,112.756413 C154.91642,102.748611 151.138266,93.7517916 145.062831,87.3213141 C149.857097,62.1371326 172.176373,57.6279218 173.142392,57.4557688 C175.21774,57.0685909 176.605728,55.0685592 176.233851,52.9608487 C175.833112,50.8604499 173.850983,49.483891 171.76137,49.8494667 C171.482379,49.8996503 145.785686,54.8821155 138.41515,81.8941758 C133.864048,79.1270997 128.661745,77.5640971 123.108797,77.5640971 C117.577411,77.5640971 112.360844,79.1413904 107.809742,81.8941758 C100.438874,54.8817832 74.7425131,49.8996503 74.4704886,49.8494667 C72.3739097,49.4765794 70.3917801,50.867429 69.9910416,52.9678279 C69.6045678,55.0755383 70.9998544,57.0828816 73.0894668,57.462748 Z M198.016045,94.8987025 C198.853349,92.1744984 197.336315,89.2927644 194.624032,88.4466227 C191.897816,87.615104 189.035256,89.1275907 188.197952,91.8591062 C188.197952,91.8591062 181.907883,112.175813 180.569987,116.527161 C177.829175,117.279915 169.514183,119.631232 163.753898,121.215504 C163.546231,120.297909 163.367425,119.373002 163.167055,118.477009 L83.0648034,118.477009 C82.8359048,119.373002 82.6640649,120.297909 82.4709939,121.215504 C76.7034115,119.62392 68.3741547,117.279915 65.6476069,116.527161 C64.3024127,112.16119 58.0196424,91.8448155 58.0196424,91.8448155 C57.1896361,89.1206115 54.2915802,87.6081249 51.5865953,88.4396435 C48.8673457,89.2854529 47.3645763,92.1744984 48.2091792,94.8917233 L57.4901899,124.929421 L80.982821,131.467578 C80.8040146,133.668344 80.6895653,135.84784 80.6895653,138.09879 C80.6895653,140.858887 80.8398422,143.568468 81.0903038,146.228197 L57.6335004,156.744815 L50.3123928,198.280868 C49.8114697,201.083837 51.6648853,203.750878 54.4700547,204.259693 C57.267926,204.747238 59.9370833,202.876155 60.4237417,200.073186 C60.4237417,200.073186 65.9836566,168.573185 66.8139948,163.920735 C69.0608506,162.895461 76.5030422,159.583677 82.8216401,156.744815 C88.3961515,180.495275 104.317877,197.672018 123.109129,197.672018 C141.907347,197.672018 157.843669,180.495275 163.410882,156.744815 C169.722182,159.583677 177.171672,162.895793 179.418527,163.920735 C180.227303,168.573185 185.80878,200.073186 185.80878,200.073186 C186.288141,202.876155 188.971563,204.747238 191.776732,204.259693 C194.574603,203.750546 196.428019,201.083837 195.920129,198.280868 L188.592387,156.744483 L165.142882,146.234844 C165.393343,143.575114 165.550919,140.865201 165.550919,138.105436 C165.550919,135.868777 165.422205,133.674991 165.257663,131.474225 L188.750294,124.936068 L198.016045,94.8987025 Z" id="Combined-Shape" fill="#52DF89"></path>
    </g>
</svg>
