<?xml version="1.0" encoding="UTF-8"?>
<svg width="169px" height="165px" viewBox="0 0 169 165" version="1.1" xmlns="http://www.w3.org/2000/svg" xmlns:xlink="http://www.w3.org/1999/xlink">
    <!-- Generator: Sketch 42 (36781) - http://www.bohemiancoding.com/sketch -->
    <title>Combined Shape</title>
    <desc>Created with Sketch.</desc>
    <defs></defs>
    <g id="Page-1" stroke="none" stroke-width="1" fill="none" fill-rule="evenodd">
        <path d="M63.4630012,7.2842743 C75.0814148,-1.15699731 93.9203626,-1.15570596 105.536999,7.2842743 L154.288898,42.7046027 C165.907312,51.1458743 171.727639,69.0631774 167.290479,82.7193523 L148.66891,140.030648 C144.231071,153.688912 128.989283,164.761123 114.630331,164.761123 L54.369669,164.761123 C40.0085199,164.761123 24.7682501,153.686823 20.3310899,140.030648 L1.70952122,82.7193523 C-2.72831789,69.061088 3.09446527,51.144583 14.7111015,42.7046027 L63.4630012,7.2842743 Z M49.6814537,38.4008798 C50.3562115,38.5220429 66.0547181,41.6956738 69.423837,59.4205708 C65.1530176,63.9412639 62.5039515,70.2784678 62.5039515,77.3171545 C62.5039515,77.3826481 62.5090881,77.4432296 62.5090881,77.5038112 L107.262101,77.5038112 C107.262101,77.4432296 107.272141,77.3826481 107.272141,77.3171545 C107.272141,70.2735558 104.613035,63.9414979 100.337079,59.4156588 C103.711335,41.6907618 119.419881,38.5171309 120.099775,38.3959678 C121.560427,38.1234678 122.537308,36.715824 122.275577,35.2323948 C121.993533,33.7541116 120.598489,32.7852747 119.127797,33.0425708 C118.931441,33.0778906 100.845833,36.584603 95.65837,55.5959807 C92.4552555,53.6484828 88.7938194,52.5484249 84.8855947,52.5484249 C80.9925463,52.5484249 77.3210705,53.6585408 74.1179559,55.5959807 C68.9302599,36.5843691 50.8448855,33.0778906 50.6534317,33.0425708 C49.177837,32.7801288 47.782793,33.7590236 47.5007489,35.2373069 C47.2287445,36.7207361 48.2107621,38.1335258 49.6814537,38.4008798 Z M137.606119,64.748706 C138.195423,62.831382 137.127718,60.8031867 135.218784,60.2076631 C133.300044,59.6224313 131.285344,60.6869356 130.69604,62.6094056 C130.69604,62.6094056 126.269022,76.9085215 125.327396,79.9710472 C123.398383,80.5008433 117.546203,82.1557253 113.492053,83.2707532 C113.345894,82.6249399 113.220048,81.9739807 113.079026,81.3433712 L56.7022026,81.3433712 C56.5411013,81.9739807 56.4201586,82.6249399 56.2842731,83.2707532 C52.2249868,82.1505794 46.3627665,80.5008433 44.443793,79.9710472 C43.4970308,76.8982296 39.0751498,62.5993476 39.0751498,62.5993476 C38.4909824,60.6820236 36.4512996,59.6175193 34.5475022,60.2027511 C32.6336652,60.7980408 31.576,62.831382 32.1704405,64.743794 L38.7025154,85.8846481 L55.2368811,90.4862725 C55.1110352,92.0351953 55.0304846,93.5691481 55.0304846,95.1533906 C55.0304846,97.0959764 55.1362511,99.0030086 55.3125286,100.874955 L38.8033789,108.276663 L33.6507048,137.510182 C33.2981498,139.482942 34.6026035,141.360034 36.5769119,141.718144 C38.5460837,142.061283 40.4246652,140.744395 40.7671806,138.771635 C40.7671806,138.771635 44.6803084,116.601597 45.2647093,113.327152 C46.8460705,112.605554 52.0839648,110.274685 56.5310617,108.276663 C60.4544626,124.992491 71.6603436,137.081667 84.8858282,137.081667 C98.1162159,137.081667 109.33237,124.992491 113.250634,108.276663 C117.692595,110.274685 122.935626,112.605788 124.516987,113.327152 C125.086211,116.601597 129.014515,138.771635 129.014515,138.771635 C129.351894,140.744395 131.240515,142.061283 133.214824,141.718144 C135.183996,141.3598 136.488449,139.482942 136.130991,137.510182 L130.973648,108.276429 L114.469634,100.879633 C114.645912,99.0076867 114.756815,97.1004206 114.756815,95.1580687 C114.756815,93.5838841 114.666225,92.0398734 114.550419,90.4909506 L131.084784,85.8893262 L137.606119,64.748706 Z" id="Combined-Shape" fill="#52DF89"></path>
    </g>
</svg>