<?xml version="1.0" encoding="UTF-8"?>
<svg width="30px" height="30px" viewBox="0 0 30 30" version="1.1" xmlns="http://www.w3.org/2000/svg" xmlns:xlink="http://www.w3.org/1999/xlink">
    <!-- Generator: Sketch 42 (36781) - http://www.bohemiancoding.com/sketch -->
    <title>Icon</title>
    <desc>Created with Sketch.</desc>
    <defs></defs>
    <g id="Page-1" stroke="none" stroke-width="1" fill="none" fill-rule="evenodd">
        <path d="M26.818477,14.8206899 C25.818477,12.2206899 20.168477,10.1706899 13.868477,10.0406899 C16.448477,7.12068993 19.088477,5.49068993 20.598477,5.71068993 C22.108477,5.93068993 21.998477,7.84068993 21.858477,9.00068993 C21.8230106,9.27395476 22.0153198,9.52440392 22.288477,9.56068993 C22.5602236,9.59062143 22.8072357,9.40095143 22.848477,9.13068993 C23.188477,6.60068993 22.428477,5.00068993 20.748477,4.76068993 C18.628477,4.41068993 15.418477,6.58068993 12.568477,10.0006899 C11.4701946,10.0221487 10.3745054,10.1156832 9.288477,10.2806899 C8.908477,8.06068993 9.058477,6.28068993 9.708477,5.50068993 C10.618477,4.36068993 12.268477,5.36068993 13.178477,6.05068993 C13.3971267,6.19894628 13.6933809,6.1515285 13.8548338,5.9424338 C14.0162867,5.73333909 13.9872214,5.43472521 13.788477,5.26068993 C11.758477,3.72068993 9.998477,3.58068993 8.928477,4.90068993 C8.048477,6.00068993 7.878477,8.00068993 8.298477,10.4806899 C5.938477,11.0006899 4.198477,11.8406899 3.428477,13.0006899 C2.96535674,13.6470944 2.8707193,14.4874749 3.178477,15.2206899 C3.60585915,16.1275509 4.30483721,16.8789523 5.178477,17.3706899 C5.41319802,17.5170454 5.72212154,17.4454109 5.868477,17.2106899 C6.01483246,16.9759689 5.94319802,16.6670454 5.708477,16.5206899 C5.00382355,16.1415863 4.42906365,15.5598596 4.058477,14.8506899 C3.87472692,14.4247271 3.93188993,13.9331252 4.208477,13.5606899 C4.748477,12.7706899 6.208477,11.9706899 8.448477,11.5006899 C8.70956216,12.5755383 9.04367119,13.6313228 9.448477,14.6606899 C7.298477,18.5606899 6.518477,22.1006899 7.448477,23.9806899 C7.7784768,24.7111225 8.4635272,25.2182869 9.258477,25.3206899 C9.40494595,25.33146 9.55200805,25.33146 9.698477,25.3206899 C10.8120619,25.2477631 11.8843032,24.8707492 12.798477,24.2306899 C13.033198,24.0843345 13.1048325,23.7754109 12.958477,23.5406899 C12.8121215,23.3059689 12.503198,23.2343345 12.268477,23.3806899 C11.441545,23.9995478 10.4310869,24.3234577 9.398477,24.3006899 C8.93442826,24.246528 8.53434628,23.9493242 8.348477,23.5206899 C7.758477,22.3006899 8.078477,19.5206899 9.958477,15.8406899 C10.4295906,16.9243895 10.9638408,17.9795335 11.558477,19.0006899 C13.958477,23.1306899 16.808477,25.8006899 19.008477,26.0006899 L19.218477,26.0006899 C19.942779,26.0101668 20.6288595,25.676398 21.068477,25.1006899 C22.598477,23.1806899 22.018477,18.3306899 19.658477,13.3006899 C19.5424972,13.0494004 19.2447666,12.9397102 18.993477,13.0556899 C18.7421875,13.1716697 18.6324972,13.4694004 18.748477,13.7206899 C20.878477,18.2706899 21.538477,22.8906899 20.278477,24.4706899 C19.9930293,24.841821 19.533463,25.0355225 19.068477,24.9806899 C17.558477,24.8706899 14.908477,22.8306899 12.408477,18.5206899 C11.6943826,17.2884407 11.0726769,16.0049192 10.548477,14.6806899 L10.628477,14.5406899 C11.3303736,13.3040294 12.1225223,12.12082 12.998477,11.0006899 L13.168477,11.0006899 C19.758477,11.0006899 25.048477,13.1606899 25.848477,15.1706899 C26.288477,16.2806899 25.228477,17.1006899 24.258477,17.5906899 C24.0127103,17.7177154 23.9164515,18.0199232 24.043477,18.2656899 C24.1705025,18.5114566 24.4727103,18.6077154 24.718477,18.4806899 C26.618477,17.5506899 27.368477,16.2106899 26.818477,14.8206899 Z M10.118477,13.4906899 C9.87158791,12.7718102 9.66131782,12.0408713 9.488477,11.3006899 C10.2374912,11.1862868 10.9917721,11.1095237 11.748477,11.0706899 C11.178477,11.8306899 10.628477,12.6406899 10.118477,13.4906899 Z M14.998477,17.0006899 C13.8939075,17.0006899 12.998477,16.1052594 12.998477,15.0006899 C12.998477,13.8961204 13.8939075,13.0006899 14.998477,13.0006899 C16.1030465,13.0006899 16.998477,13.8961204 16.998477,15.0006899 C16.998477,16.1052594 16.1030465,17.0006899 14.998477,17.0006899 Z" id="Combined-Shape" fill="#FFFFFF" fill-rule="nonzero"></path>
    </g>
</svg>