<?xml version="1.0" encoding="UTF-8"?>
<svg width="30px" height="30px" viewBox="0 0 30 30" version="1.1" xmlns="http://www.w3.org/2000/svg" xmlns:xlink="http://www.w3.org/1999/xlink">
    <!-- Generator: Sketch 42 (36781) - http://www.bohemiancoding.com/sketch -->
    <title>Icon</title>
    <desc>Created with Sketch.</desc>
    <defs></defs>
    <g id="Page-1" stroke="none" stroke-width="1" fill="none" fill-rule="evenodd">
        <path d="M26.5,9 L24,9 L24,7.5 C24,7.224 23.776,7 23.5,7 L11,7 L11,5.5 C11,5.224 10.776,5 10.5,5 L3.5,5 C3.224,5 3,5.224 3,5.5 L3,22 C3,23.654 4.346,25 6,25 L23.5,25 C25.43,25 27,23.43 27,21.5 L27,9.5 C27,9.224 26.776,9 26.5,9 Z M22.854,17.854 C22.659,18.049 22.342,18.049 22.147,17.854 L21,16.707 L21,20.5 C21,20.776 20.776,21 20.5,21 L14.5,21 C14.224,21 14,20.776 14,20.5 L14,16.707 L12.854,17.854 C12.659,18.049 12.342,18.049 12.147,17.854 C11.952,17.659 11.952,17.342 12.147,17.147 L17.147,12.147 C17.342,11.952 17.659,11.952 17.854,12.147 L22.854,17.147 C23.049,17.342 23.049,17.659 22.854,17.854 Z M23,9 L8.5,9 C8.224,9 8,9.224 8,9.5 L8,22 C8,23.103 7.103,24 6,24 C4.897,24 4,23.103 4,22 L4,6 L10,6 L10,7.5 C10,7.776 10.224,8 10.5,8 L23,8 L23,9 Z" id="Shape" fill="#FFFFFF" fill-rule="nonzero"></path>
    </g>
</svg>