<?xml version="1.0" encoding="utf-8"?>
<!-- Generator: Adobe Illustrator 19.2.1, SVG Export Plug-In . SVG Version: 6.00 Build 0)  -->
<svg version="1.1" xmlns="http://www.w3.org/2000/svg" xmlns:xlink="http://www.w3.org/1999/xlink" x="0px" y="0px" width="24px"
	 height="24px" viewBox="0 0 24 24" enable-background="new 0 0 24 24" xml:space="preserve">
<g id="Filled_Icons">
	<path d="M0.5,8.004H13V2.025c0-0.202,0.122-0.385,0.308-0.462c0.187-0.077,0.401-0.034,0.545,0.107l10.009,9.975
		c0.094,0.094,0.147,0.222,0.147,0.354s-0.053,0.26-0.146,0.354L13.854,22.357c-0.096,0.096-0.224,0.146-0.354,0.146
		c-0.064,0-0.129-0.013-0.191-0.038C13.122,22.389,13,22.206,13,22.004v-6H0.5c-0.276,0-0.5-0.224-0.5-0.5v-7
		C0,8.227,0.224,8.004,0.5,8.004z"/>
</g>
<g id="Frames-24px">
	<rect fill="none" width="24" height="24"/>
</g>
</svg>
