<svg xmlns="http://www.w3.org/2000/svg" width="24" height="24" viewBox="0 0 24 24">
  <g fill="none" fill-rule="evenodd">
    <path fill="#000" fill-rule="nonzero" d="M1,2.00246167 L1,21.9975383 C1,22.5605417 1.44881738,23 2.00246167,23 L21.9975383,23 C22.5605417,23 23,22.5511826 23,21.9975383 L23,2.00246167 C23,1.43945834 22.5511826,1 21.9975383,1 L2.00246167,1 C1.43945834,1 1,1.44881738 1,2.00246167 Z M0,2.00246167 C0,0.894722391 0.888952487,0 2.00246167,0 L21.9975383,0 C23.1052776,0 24,0.888952487 24,2.00246167 L24,21.9975383 C24,23.1052776 23.1110475,24 21.9975383,24 L2.00246167,24 C0.894722391,24 0,23.1110475 0,21.9975383 L0,2.00246167 Z"/>
    <rect width="18" height="5" x="9.5" y="9.5" fill="#000" rx="1" transform="rotate(90 18.5 12)"/>
  </g>
</svg>
