<?xml version="1.0" encoding="utf-8"?>
<!-- Generator: Adobe Illustrator 19.2.1, SVG Export Plug-In . SVG Version: 6.00 Build 0)  -->
<svg version="1.1" xmlns="http://www.w3.org/2000/svg" xmlns:xlink="http://www.w3.org/1999/xlink" x="0px" y="0px" width="24px"
	 height="24px" viewBox="0 0 24 24" enable-background="new 0 0 24 24" xml:space="preserve">
<g id="Filled_Icons_1_">
	<g id="Filled_Icons">
		<path d="M23.707,22.293L13.414,12L23.706,1.707c0.391-0.39,0.391-1.023,0-1.414c-0.391-0.391-1.023-0.391-1.414,0L12,10.586
			L1.706,0.292c-0.391-0.39-1.023-0.39-1.414,0c-0.391,0.391-0.391,1.023,0,1.414L10.586,12L0.292,22.294
			c-0.39,0.39-0.391,1.024,0,1.414c0.391,0.391,1.024,0.39,1.414,0L12,13.414l10.293,10.292c0.39,0.391,1.023,0.391,1.414,0
			C24.098,23.316,24.097,22.683,23.707,22.293z"/>
	</g>
	<g id="New_icons">
	</g>
</g>
<g id="Invisible_Shape">
	<rect fill="none" width="24" height="24"/>
</g>
</svg>
