<?xml version="1.0" encoding="utf-8"?>
<!-- Generator: Adobe Illustrator 19.2.1, SVG Export Plug-In . SVG Version: 6.00 Build 0)  -->
<svg version="1.1" xmlns="http://www.w3.org/2000/svg" xmlns:xlink="http://www.w3.org/1999/xlink" x="0px" y="0px" width="24px"
	 height="24px" viewBox="0 0 24 24" enable-background="new 0 0 24 24" xml:space="preserve">
<g id="Filled_Icon">
	<path d="M12,0C5.383,0,0,5.384,0,12c0,6.617,5.383,12,12,12s12-5.383,12-12C24,5.384,18.617,0,12,0z M7,7.5
		c0-0.43,0.513-0.662,0.834-0.371l5,4.5c0.223,0.2,0.219,0.547,0,0.743l-5,4.5C7.514,17.159,7,16.935,7,16.5V7.5z M17,16.5
		c0,0.276-0.224,0.5-0.5,0.5h-2c-0.276,0-0.5-0.224-0.5-0.5v-9C14,7.224,14.224,7,14.5,7h2C16.776,7,17,7.224,17,7.5V16.5z"/>
</g>
<g id="Invisible_Shape">
	<rect fill="none" width="24" height="24"/>
</g>
</svg>
