<svg xmlns="http://www.w3.org/2000/svg" width="24" height="24" viewBox="0 0 24 24">
  <g stroke="#000" transform="translate(5 2)">
    <path d="M13.6191779,0.0726695625 C13.5020277,-0.0324798494 13.3208736,-0.0216220297 13.2157241,0.0972425229 L6.85761351,7.28397624 L0.500074338,0.0972425229 C0.39549639,-0.0221934939 0.214342241,-0.0330513136 0.0966206164,0.0726695625 C-0.021672472,0.17724751 -0.0331017559,0.357258732 0.072047656,0.47555182 L6.6438859,7.90458636 C6.698175,7.96573303 6.77589413,8.00116381 6.85761351,8.00116381 C6.93933289,8.00116381 7.01762348,7.96573303 7.07191258,7.90458636 L13.6437508,0.47555182 C13.7483288,0.357258732 13.737471,0.17724751 13.6191779,0.0726695625 Z" transform="rotate(180 6.858 4)"/>
    <path d="M13.6191779,12.0726696 C13.5020277,11.9675202 13.3208736,11.978378 13.2157241,12.0972425 L6.85761351,19.2839762 L0.500074338,12.0972425 C0.39549639,11.9778065 0.214342241,11.9669487 0.0966206164,12.0726696 C-0.021672472,12.1772475 -0.0331017559,12.3572587 0.072047656,12.4755518 L6.6438859,19.9045864 C6.698175,19.965733 6.77589413,20.0011638 6.85761351,20.0011638 C6.93933289,20.0011638 7.01762348,19.965733 7.07191258,19.9045864 L13.6437508,12.4755518 C13.7483288,12.3572587 13.737471,12.1772475 13.6191779,12.0726696 Z"/>
  </g>
</svg>
