<?xml version="1.0" encoding="utf-8"?>
<!-- Generator: Adobe Illustrator 19.2.1, SVG Export Plug-In . SVG Version: 6.00 Build 0)  -->
<svg version="1.1" xmlns="http://www.w3.org/2000/svg" xmlns:xlink="http://www.w3.org/1999/xlink" x="0px" y="0px" width="24px"
	 height="24px" viewBox="0 0 24 24" enable-background="new 0 0 24 24" xml:space="preserve">
<g id="Filled_Icons_1_">
	<g id="Filled_Icons">
		<path d="M23.143,5.15l-2.951,3.014c-2.839-0.863-5.531-1.301-8.005-1.301c-7.681,0-12.093,4.225-12.107,11.591
			c-0.002,0.665,0.998,0.669,1,0.002c0.009-4.799,3.609-5.516,5.755-5.516c2.082,0,4.482,0.621,6.819,1.759l-3.504,3.444
			C9.833,18.452,10.049,19,10.5,19h13c0.275,0,0.5-0.224,0.5-0.5v-13C24,5.051,23.451,4.832,23.143,5.15z"/>
	</g>
	<g id="New_icons">
	</g>
</g>
<g id="Invisible_Shape">
	<rect fill="none" width="24" height="24"/>
</g>
</svg>
