<?xml version="1.0" encoding="utf-8"?>
<!-- Generator: Adobe Illustrator 19.2.1, SVG Export Plug-In . SVG Version: 6.00 Build 0)  -->
<svg version="1.1" xmlns="http://www.w3.org/2000/svg" xmlns:xlink="http://www.w3.org/1999/xlink" x="0px" y="0px" width="24px"
	 height="24px" viewBox="0 0 24 24" enable-background="new 0 0 24 24" xml:space="preserve">
<g id="Filled_Icon">
	<g>
		<path d="M1.5,23H1v-0.5C1,22.224,0.776,22,0.5,22S0,22.224,0,22.5v1C0,23.776,0.224,24,0.5,24h1C1.776,24,2,23.776,2,23.5
			S1.776,23,1.5,23z"/>
		<path d="M10.5,22c-0.276,0-0.5,0.224-0.5,0.5V23H9.5C9.224,23,9,23.224,9,23.5S9.224,24,9.5,24h1c0.276,0,0.5-0.224,0.5-0.5v-1
			C11,22.224,10.776,22,10.5,22z"/>
		<path d="M0.5,21C0.776,21,1,20.776,1,20.5v-1C1,19.224,0.776,19,0.5,19S0,19.224,0,19.5v1C0,20.776,0.224,21,0.5,21z"/>
		<path d="M4.5,23h-1C3.224,23,3,23.224,3,23.5S3.224,24,3.5,24h1C4.776,24,5,23.776,5,23.5S4.776,23,4.5,23z"/>
		<path d="M4.5,13h-1C3.224,13,3,13.224,3,13.5S3.224,14,3.5,14h1C4.776,14,5,13.776,5,13.5S4.776,13,4.5,13z"/>
		<path d="M7.5,23h-1C6.224,23,6,23.224,6,23.5S6.224,24,6.5,24h1C7.776,24,8,23.776,8,23.5S7.776,23,7.5,23z"/>
		<path d="M7.5,13h-1C6.224,13,6,13.224,6,13.5S6.224,14,6.5,14h1C7.776,14,8,13.776,8,13.5S7.776,13,7.5,13z"/>
		<path d="M10.5,13h-1C9.224,13,9,13.224,9,13.5S9.224,14,9.5,14H10v0.5c0,0.276,0.224,0.5,0.5,0.5s0.5-0.224,0.5-0.5v-1
			C11,13.224,10.776,13,10.5,13z"/>
		<path d="M10.5,16c-0.276,0-0.5,0.224-0.5,0.5v1c0,0.276,0.224,0.5,0.5,0.5s0.5-0.224,0.5-0.5v-1C11,16.224,10.776,16,10.5,16z"/>
		<path d="M1.5,13h-1C0.224,13,0,13.224,0,13.5v1C0,14.776,0.224,15,0.5,15S1,14.776,1,14.5V14h0.5C1.776,14,2,13.776,2,13.5
			S1.776,13,1.5,13z"/>
		<path d="M0.5,18C0.776,18,1,17.776,1,17.5v-1C1,16.224,0.776,16,0.5,16S0,16.224,0,16.5v1C0,17.776,0.224,18,0.5,18z"/>
		<path d="M10.5,19c-0.276,0-0.5,0.224-0.5,0.5v1c0,0.276,0.224,0.5,0.5,0.5s0.5-0.224,0.5-0.5v-1C11,19.224,10.776,19,10.5,19z"/>
		<path d="M10.5,0h-10C0.224,0,0,0.224,0,0.5v10C0,10.776,0.224,11,0.5,11h10c0.276,0,0.5-0.224,0.5-0.5v-10
			C11,0.224,10.776,0,10.5,0z"/>
		<path d="M22.707,14.276c-0.391-0.391-1.023-0.391-1.414,0L19,16.569V3.5c0-0.552-0.448-1-1-1s-1,0.448-1,1v13.069l-2.293-2.293
			c-0.391-0.391-1.023-0.391-1.414,0c-0.391,0.391-0.391,1.024,0,1.414l4,4c0.391,0.391,1.023,0.391,1.414,0l4-4
			C23.098,15.3,23.098,14.667,22.707,14.276z"/>
	</g>
</g>
<g id="Invisible_Shape">
	<rect fill="none" width="24" height="24"/>
</g>
</svg>
