<svg xmlns="http://www.w3.org/2000/svg" width="24" height="24" viewBox="0 0 24 24">
  <g fill="none" fill-rule="evenodd" transform="translate(3 2)">
    <path fill="#000" fill-rule="nonzero" d="M12.4974783,6.64916935 C9.63961068,6.64916935 6.78174304,6.64916935 3.92387541,6.64916935 L3.18232537,6.64916935 C2.83288118,6.64916935 2.54960068,6.36588886 2.54960068,6.01644466 L2.54960068,6.01644466 C2.54960068,5.66700046 2.83288118,5.38371997 3.18232537,5.38371997 L3.18232537,5.38371997 L3.47678501,5.38371997 L12.5235429,5.38371997 L10.5989432,3.45912034 L9.1147403,1.9749174 C8.86867303,1.72885013 8.86867303,1.32989627 9.1147403,1.083829 C9.36080756,0.837761733 9.75976143,0.837761733 10.0058287,1.083829 L10.0058287,1.083829 L14.2220247,5.30002504 C14.612549,5.69054933 14.612549,6.32371431 14.2220247,6.7142386 L14.2220247,6.7142386 L14.0374814,6.89878193 L10.0076884,10.9285749 C9.76059405,11.1756693 9.35997494,11.1756693 9.11288058,10.9285749 C8.86578622,10.6814806 8.86578622,10.2808615 9.11288058,10.0337671 L9.11288058,10.0337671 C10.2410798,8.90556784 11.3692791,7.7773686 12.4974783,6.64916935 Z" transform="matrix(0 1 1 0 2.526 -2.526)"/>
    <rect width="4" height="19" x="7" y="7" stroke="#000" rx="1" transform="rotate(-90 9 16.5)"/>
  </g>
</svg>
