<svg xmlns="http://www.w3.org/2000/svg" width="24" height="24" viewBox="0 0 24 24">
  <g fill="none" fill-rule="evenodd" transform="translate(3)">
    <rect width="4" height="19" x="7" y="9" stroke="#000" rx="1" transform="rotate(-90 9 18.5)"/>
    <path fill="#000" fill-rule="nonzero" d="M14.3050116,7.68498595 C11.4471439,7.68498595 8.58927629,7.68498595 5.73140866,7.68498595 C5.48047358,7.69765455 5.28351698,7.90480547 5.28351698,8.15606012 L5.28352452,8.15606012 L5.28352452,17.7821081 C5.28352452,18.1298215 5.0016471,18.4116989 4.65393368,18.4116989 C4.30622027,18.4116989 4.02434285,18.1298215 4.02434285,17.7821081 L4.02434285,17.7821081 L4.02434285,7.41953657 C4.02434285,6.86725183 4.4720581,6.41953657 5.02434285,6.41953657 L5.02434285,6.41953657 L5.28431826,6.41953657 L14.3310761,6.41953657 L12.4064765,4.49493695 L10.9222735,3.010734 C10.6762063,2.76466673 10.6762063,2.36571287 10.9222735,2.1196456 C11.1683408,1.87357834 11.5672947,1.87357834 11.8133619,2.1196456 L16.029558,6.33584165 C16.4200823,6.72636594 16.4200823,7.35953092 16.029558,7.75005521 L16.029558,7.75005521 L15.8450147,7.93459853 L11.8152217,11.9643915 C11.5681273,12.2114859 11.1675082,12.2114859 10.9204138,11.9643915 C10.6733195,11.7172972 10.6733195,11.3166781 10.9204138,11.0695837 C12.0486131,9.94138445 13.1768123,8.8131852 14.3050116,7.68498595 Z" transform="rotate(45 10.173 10.173)"/>
  </g>
</svg>
