<?xml version="1.0" encoding="utf-8"?>
<!-- Generator: Adobe Illustrator 19.2.1, SVG Export Plug-In . SVG Version: 6.00 Build 0)  -->
<svg version="1.1" xmlns="http://www.w3.org/2000/svg" xmlns:xlink="http://www.w3.org/1999/xlink" x="0px" y="0px" width="24px"
	 height="24px" viewBox="0 0 24 24" enable-background="new 0 0 24 24" xml:space="preserve">
<g id="Filled_Icon">
	<g>
		<path d="M0.5,2C0.776,2,1,1.776,1,1.5V1h0.5C1.776,1,2,0.776,2,0.5S1.776,0,1.5,0h-1C0.224,0,0,0.224,0,0.5v1
			C0,1.776,0.224,2,0.5,2z"/>
		<path d="M10.5,0h-1C9.224,0,9,0.224,9,0.5S9.224,1,9.5,1H10v0.5C10,1.776,10.224,2,10.5,2S11,1.776,11,1.5v-1
			C11,0.224,10.776,0,10.5,0z"/>
		<path d="M0.5,5C0.776,5,1,4.776,1,4.5v-1C1,3.224,0.776,3,0.5,3S0,3.224,0,3.5v1C0,4.776,0.224,5,0.5,5z"/>
		<path d="M3.5,1h1C4.776,1,5,0.776,5,0.5S4.776,0,4.5,0h-1C3.224,0,3,0.224,3,0.5S3.224,1,3.5,1z"/>
		<path d="M3.5,11h1C4.776,11,5,10.776,5,10.5S4.776,10,4.5,10h-1C3.224,10,3,10.224,3,10.5S3.224,11,3.5,11z"/>
		<path d="M6.5,1h1C7.776,1,8,0.776,8,0.5S7.776,0,7.5,0h-1C6.224,0,6,0.224,6,0.5S6.224,1,6.5,1z"/>
		<path d="M6.5,11h1C7.776,11,8,10.776,8,10.5S7.776,10,7.5,10h-1C6.224,10,6,10.224,6,10.5S6.224,11,6.5,11z"/>
		<path d="M10.5,9C10.224,9,10,9.224,10,9.5V10H9.5C9.224,10,9,10.224,9,10.5S9.224,11,9.5,11h1c0.276,0,0.5-0.224,0.5-0.5v-1
			C11,9.224,10.776,9,10.5,9z"/>
		<path d="M10.5,6C10.224,6,10,6.224,10,6.5v1C10,7.776,10.224,8,10.5,8S11,7.776,11,7.5v-1C11,6.224,10.776,6,10.5,6z"/>
		<path d="M0.5,11h1C1.776,11,2,10.776,2,10.5S1.776,10,1.5,10H1V9.5C1,9.224,0.776,9,0.5,9S0,9.224,0,9.5v1
			C0,10.776,0.224,11,0.5,11z"/>
		<path d="M0.5,8C0.776,8,1,7.776,1,7.5v-1C1,6.224,0.776,6,0.5,6S0,6.224,0,6.5v1C0,7.776,0.224,8,0.5,8z"/>
		<path d="M10.5,3C10.224,3,10,3.224,10,3.5v1C10,4.776,10.224,5,10.5,5S11,4.776,11,4.5v-1C11,3.224,10.776,3,10.5,3z"/>
		<path d="M10.5,13h-10C0.224,13,0,13.224,0,13.5v10C0,23.776,0.224,24,0.5,24h10c0.276,0,0.5-0.224,0.5-0.5v-10
			C11,13.224,10.776,13,10.5,13z"/>
		<path d="M22.707,8.31l-4-4c-0.391-0.391-1.027-0.387-1.414,0l-4,4c-0.391,0.391-0.391,1.023,0,1.414
			c0.391,0.391,1.023,0.391,1.414,0L17,7.431V20.5c0,0.552,0.448,1,1,1s1-0.448,1-1V7.431l2.293,2.293
			c0.391,0.391,1.023,0.391,1.414,0C23.098,9.333,23.098,8.701,22.707,8.31z"/>
	</g>
</g>
<g id="Invisible_Shape">
	<rect fill="none" width="24" height="24"/>
</g>
</svg>
