<svg xmlns="http://www.w3.org/2000/svg" width="231" height="256" viewBox="0 0 231 256">
  <path fill="#68E083" fill-rule="evenodd" d="M228.198356,33.4501609 C229.360316,34.4629984 230.009836,35.8606629 230.007996,37.337682 L230.007996,149.330029 C230.007996,208.147983 178.413477,256.0005 115.007998,256.0005 C51.6025191,256.0005 0.008,208.14713 0.008,149.330029 L0.008,37.337682 C0.008,35.8709022 0.657519989,34.4689713 1.80751997,33.4552806 C2.96303995,32.4475628 4.52703992,31.9091462 6.0855199,32.004713 C11.8125198,32.3144519 17.3269997,32.4688947 22.4789996,32.4688947 C67.1449989,32.4688947 88.7769585,21.0990049 111.046478,1.46855968 C113.271958,-0.488853228 116.744958,-0.488853228 118.970438,1.46855968 C141.240878,21.1092442 162.871917,32.4688947 207.532396,32.4688947 C212.684396,32.4688947 218.193356,32.3135986 223.920356,32.004713 C225.501836,31.9031733 227.053876,32.4364702 228.198356,33.4501609 Z M112,199.965637 L112,200.38622 C112.166569,200.387962 112.333345,200.388835 112.500325,200.388835 C113.478499,200.388835 114.449719,200.358866 115.413119,200.299798 C116.37652,200.358866 117.347739,200.388835 118.325914,200.388835 C118.492893,200.388835 118.659669,200.387962 118.826238,200.38622 L118.826238,199.965637 C140.818807,196.999424 158.003061,178.78844 159.436044,156.368359 L169.90072,165.083359 L157.167438,187.977417 C156.696448,188.82687 156.701966,189.855941 157.183992,190.69437 L168.263454,210.060929 C168.773071,210.957394 169.709208,211.455394 170.670339,211.455394 C171.13581,211.455394 171.609397,211.339323 172.041435,211.090323 C173.368063,210.334894 173.830937,208.644741 173.071706,207.316741 L162.767706,189.302823 L175.858044,165.766812 C176.503343,164.604812 176.23198,163.1468 175.209825,162.297347 L159.587631,149.293905 L159.587631,139.521952 L172.434522,139.521952 L188.283933,152.713441 C188.80199,153.144976 189.430734,153.355394 190.05396,153.355394 C190.848897,153.355394 191.63572,153.017882 192.183964,152.359394 C193.162948,151.18637 193.005194,149.44337 191.830802,148.463905 L175.211448,134.630464 C174.712867,134.215464 174.08672,133.988511 173.438825,133.988511 L159.589254,133.988511 L159.589254,122.921952 C159.589254,121.394882 158.348321,120.155394 156.81947,120.155394 L148.041724,120.155394 C147.872609,119.073476 147.659349,118.005823 147.396425,116.956976 L168.871423,108.914405 C169.796524,108.56587 170.469738,107.752405 170.630413,106.778452 L173.015226,92.4885109 L181.748827,92.4885109 C183.277677,92.4885109 184.518611,91.2519406 184.518611,89.7219523 C184.518611,88.194882 183.277677,86.9553937 181.748827,86.9553937 L170.669365,86.9553937 C169.314823,86.9553937 168.159907,87.9348585 167.935611,89.2683702 L165.42875,104.29137 L145.660157,111.697823 C145.247595,110.729382 144.787641,109.791741 144.294579,108.867394 C153.554351,104.210964 156.81947,94.6769874 156.81947,84.1888351 C156.81947,84.1888351 156.811874,61.7344326 149.426439,64.1872554 C142.291435,66.5569055 151.578431,81.7960757 147.396425,89.7219523 C143.21442,97.6478289 134.343388,95.2550695 131.890438,95.2550695 C130.322635,94.4416046 128.907069,93.6780695 127.436321,93.0027218 C130.123008,90.9831632 131.890438,87.8012804 131.890438,84.1881867 C131.890438,78.0876867 126.918589,73.1216281 120.810976,73.1216281 C119.282125,73.1216281 118.041192,74.3611163 118.041192,75.8881867 C118.041192,77.4181749 119.282125,78.6547452 120.810976,78.6547452 C123.866081,78.6547452 126.350869,81.1363156 126.350869,84.1881867 C126.350869,87.2400577 123.866405,89.7216281 120.810976,89.7216281 L110.015262,89.7216281 C106.959833,89.7216281 104.475369,87.2400577 104.475369,84.1881867 C104.475369,81.1363156 106.960158,78.6547452 110.015262,78.6547452 C111.544113,78.6547452 112.785047,77.4181749 112.785047,75.8881867 C112.785047,74.3611163 111.544113,73.1216281 110.015262,73.1216281 C103.90765,73.1216281 98.9358007,78.0876867 98.9358007,84.1881867 C98.9358007,87.8012804 100.70323,90.9831632 103.389918,93.0027218 C101.91917,93.6780695 100.503603,94.4416046 98.9358007,95.2550695 C96.4828503,95.2550695 87.6118183,97.6478289 83.4298128,89.7219523 C79.2478073,81.7960757 88.534803,66.5569055 81.3997995,64.1872554 C74.0143637,61.7344326 74.0067685,84.1888351 74.0067685,84.1888351 C74.0067685,94.6769874 77.2718874,104.210964 86.5316596,108.867394 C86.0385971,109.791741 85.5786435,110.729382 85.166081,111.697823 L65.3974882,104.29137 L62.8906273,89.2683702 C62.666331,87.9348585 61.5114156,86.9553937 60.1568733,86.9553937 L49.0774116,86.9553937 C47.5485608,86.9553937 46.3076273,88.194882 46.3076273,89.7219523 C46.3076273,91.2519406 47.5485608,92.4885109 49.0774116,92.4885109 L57.8110124,92.4885109 L60.1958249,106.778452 C60.3565003,107.752405 61.029714,108.56587 61.9548148,108.914405 L83.4298128,116.956976 C83.1668894,118.005823 82.9536294,119.073476 82.7845144,120.155394 L74.0067685,120.155394 C72.4779177,120.155394 71.2369842,121.394882 71.2369842,122.921952 L71.2369842,133.988511 L57.3874136,133.988511 C56.7395185,133.988511 56.1133713,134.215464 55.6147906,134.630464 L38.9954358,148.463905 C37.8210447,149.44337 37.6632906,151.18637 38.6422745,152.359394 C39.1905185,153.017882 39.977341,153.355394 40.7722785,153.355394 C41.3955044,153.355394 42.0242483,153.144976 42.5423048,152.713441 L58.391716,139.521952 L71.2386072,139.521952 L71.2386072,149.293905 L55.6164136,162.297347 C54.5942584,163.1468 54.3228955,164.604812 54.9681939,165.766812 L68.0585326,189.302823 L57.7545326,207.316741 C56.9953007,208.644741 57.4581757,210.334894 58.7848027,211.090323 C59.216841,211.339323 59.6904277,211.455394 60.1558995,211.455394 C61.1170306,211.455394 62.0531677,210.957394 62.5627846,210.060929 L73.6422463,190.69437 C74.1242725,189.855941 74.1297906,188.82687 73.6588007,187.977417 L60.9255185,165.083359 L71.3901939,156.368359 C72.8231777,178.78844 90.0074312,196.999424 112,199.965637 L112,199.965637 Z"/>
</svg>
